<?xml version="1.0" encoding="utf-8"?>
<!-- Generator: Adobe Illustrator 24.0.0, SVG Export Plug-In . SVG Version: 6.00 Build 0)  -->
<svg version="1.1" id="Layer_1" xmlns="http://www.w3.org/2000/svg" xmlns:xlink="http://www.w3.org/1999/xlink" x="0px" y="0px"
	 viewBox="0 0 713.83 570.14" style="enable-background:new 0 0 713.83 570.14;" xml:space="preserve">
<style type="text/css">
	.st0{fill:#E8EAF1;}
	.st1{fill:#172C55;}
	.st2{fill:#149EAD;}
	.st3{fill:#EF7123;}
	.st4{fill:#1D3261;}
	.st5{fill:#FFFFFF;}
	.st6{fill:#1E3666;}
	.st7{fill:none;stroke:#1E3666;stroke-width:0.8081;stroke-miterlimit:10;}
	.st8{fill:url(#SVGID_1_);}
	.st9{fill:url(#SVGID_2_);}
	.st10{fill:url(#SVGID_3_);}
	.st11{fill:url(#SVGID_4_);}
	.st12{fill:url(#SVGID_5_);}
	.st13{fill:url(#SVGID_6_);}
	.st14{fill:url(#SVGID_7_);}
	.st15{fill:url(#SVGID_8_);}
	.st16{fill:url(#SVGID_9_);}
	.st17{fill:url(#SVGID_10_);}
	.st18{fill:url(#SVGID_11_);}
	.st19{fill:url(#SVGID_12_);}
	.st20{fill:url(#SVGID_13_);}
	.st21{fill:url(#SVGID_14_);}
	.st22{fill:url(#SVGID_15_);}
	.st23{fill:url(#SVGID_16_);}
	.st24{fill:url(#SVGID_17_);}
	.st25{fill:url(#SVGID_18_);}
	.st26{fill:url(#SVGID_19_);}
	.st27{fill:#122249;}
	.st28{fill:url(#SVGID_20_);}
	.st29{fill:url(#SVGID_21_);}
	.st30{fill:url(#SVGID_22_);}
	.st31{fill:none;stroke:#1E3666;stroke-width:0.7777;stroke-miterlimit:10;}
	.st32{fill:url(#SVGID_23_);}
	.st33{fill:url(#SVGID_24_);}
	.st34{fill:url(#SVGID_25_);}
	.st35{fill:url(#SVGID_26_);}
	.st36{fill:url(#SVGID_27_);}
	.st37{fill:url(#SVGID_28_);}
	.st38{fill:url(#SVGID_29_);}
	.st39{fill:url(#SVGID_30_);}
	.st40{fill:url(#SVGID_31_);}
	.st41{fill:url(#SVGID_32_);}
	.st42{fill:url(#SVGID_33_);}
	.st43{fill:url(#SVGID_34_);}
	.st44{fill:url(#SVGID_35_);}
	.st45{fill:url(#SVGID_36_);}
	.st46{fill:url(#SVGID_37_);}
	.st47{fill:url(#SVGID_38_);}
	.st48{fill:url(#SVGID_39_);}
	.st49{fill:url(#SVGID_40_);}
	.st50{fill:url(#SVGID_41_);}
	.st51{fill:url(#SVGID_42_);}
	.st52{fill:url(#SVGID_43_);}
	.st53{fill:#181E3E;}
	.st54{fill:#16234B;}
	.st55{fill:url(#SVGID_44_);}
	.st56{fill:url(#SVGID_45_);}
	.st57{fill:url(#SVGID_46_);}
	.st58{fill:url(#SVGID_47_);}
	.st59{fill:url(#SVGID_48_);}
	.st60{fill:url(#SVGID_49_);}
	.st61{fill:url(#SVGID_50_);}
	.st62{fill:url(#SVGID_51_);}
	.st63{fill:url(#SVGID_52_);}
	.st64{fill:url(#SVGID_53_);}
	.st65{fill:url(#SVGID_54_);}
	.st66{fill:url(#SVGID_55_);}
	.st67{fill:url(#SVGID_56_);}
	.st68{fill:url(#SVGID_57_);}
	.st69{fill:url(#SVGID_58_);}
	.st70{fill:url(#SVGID_59_);}
	.st71{fill:url(#SVGID_60_);}
	.st72{fill:url(#SVGID_61_);}
	.st73{fill:url(#SVGID_62_);}
	.st74{fill:url(#SVGID_63_);}
	.st75{fill:url(#SVGID_64_);}
	.st76{fill:url(#SVGID_65_);}
	.st77{fill:url(#SVGID_66_);}
	.st78{fill:url(#SVGID_67_);}
	.st79{fill:url(#SVGID_68_);}
	.st80{fill:url(#SVGID_69_);}
	.st81{fill:url(#SVGID_70_);}
	.st82{fill:url(#SVGID_71_);}
	.st83{fill:url(#SVGID_72_);}
	.st84{fill:url(#SVGID_73_);}
	.st85{fill:url(#SVGID_74_);}
	.st86{fill:url(#SVGID_75_);}
	.st87{fill:url(#SVGID_76_);}
	.st88{fill:url(#SVGID_77_);}
	.st89{fill:url(#SVGID_78_);}
	.st90{fill:url(#SVGID_79_);}
	.st91{fill:url(#SVGID_80_);}
	.st92{fill:url(#SVGID_81_);}
	.st93{fill:url(#SVGID_82_);}
	.st94{fill:#223F80;}
	.st95{fill:#3C7585;}
	.st96{fill:#1B1B3B;}
	.st97{fill:#F9EEE2;}
	.st98{fill:url(#SVGID_83_);}
	.st99{fill:#2F556A;}
	.st100{fill:#F3F3F3;}
	.st101{fill:url(#SVGID_84_);}
	.st102{fill:url(#SVGID_85_);}
	.st103{fill:url(#SVGID_86_);}
	.st104{fill:url(#SVGID_87_);}
	.st105{fill:url(#SVGID_88_);}
</style>
<g>
	<circle class="st6" cx="225.88" cy="357.4" r="8.23"/>
	<g>
		<g>
			<linearGradient id="SVGID_1_" gradientUnits="userSpaceOnUse" x1="378.9393" y1="297.0247" x2="378.9393" y2="201.3182">
				<stop  offset="0" style="stop-color:#1D3261"/>
				<stop  offset="1" style="stop-color:#0E6EB7"/>
			</linearGradient>
			<path class="st8" d="M371.26,267.29h13.85l-8.75,41.15h21.21L394,318.88h-33.7L371.26,267.29z"/>
			<linearGradient id="SVGID_2_" gradientUnits="userSpaceOnUse" x1="423.8259" y1="308.9901" x2="423.8259" y2="222.7034">
				<stop  offset="0" style="stop-color:#1D3261"/>
				<stop  offset="1" style="stop-color:#0E6EB7"/>
			</linearGradient>
			<path class="st9" d="M439.44,297.61h-20.7l-2.31,10.94h24.41l-3.53,10.34h-36.39l10.95-51.59h34.87l-2.22,10.41h-21.53
				l-2.04,9.49h20.7L439.44,297.61z"/>
			<linearGradient id="SVGID_3_" gradientUnits="userSpaceOnUse" x1="466.7775" y1="319.1846" x2="466.7775" y2="232.0086">
				<stop  offset="0" style="stop-color:#1D3261"/>
				<stop  offset="1" style="stop-color:#0E6EB7"/>
			</linearGradient>
			<path class="st10" d="M462.1,308.24l-4.85,10.64h-14.15c5.18-10.31,18.47-38.78,25.02-51.59h18.63l3.73,51.59h-13.75l-0.6-10.64
				H462.1z M476.2,297.48c-0.36-7.76-0.72-15.64-0.61-20.96h-0.31c-2.25,5.97-5.39,13.39-8.87,20.96H476.2z"/>
			<linearGradient id="SVGID_4_" gradientUnits="userSpaceOnUse" x1="519.7461" y1="332.5651" x2="519.7461" y2="241.8777">
				<stop  offset="0" style="stop-color:#1D3261"/>
				<stop  offset="1" style="stop-color:#0E6EB7"/>
			</linearGradient>
			<path class="st11" d="M513.48,298.58l-4.29,20.3h-13.47l10.95-51.59h20.5c11.07,0,16.59,5.68,16.59,13.01
				c0,6.99-4.02,11.59-9.92,13.63c3.79,2.21,5.08,6.35,3.51,13.99c-1.24,5.82-1.51,9.07-1.65,10.95h-13.39
				c-0.03-1.6,0.24-5.04,1.7-11.7c1.16-5.38,0.78-8.61-4.97-8.61H513.48z M515.55,288.86h5.98c5.37,0,8.05-2.5,8.05-6.75
				c0-3.89-2.77-5.12-5.78-5.12h-5.75L515.55,288.86z"/>
			<linearGradient id="SVGID_5_" gradientUnits="userSpaceOnUse" x1="570.9556" y1="342.7982" x2="570.9556" y2="259.4402">
				<stop  offset="0" style="stop-color:#1D3261"/>
				<stop  offset="1" style="stop-color:#0E6EB7"/>
			</linearGradient>
			<path class="st12" d="M544.3,318.88l10.95-51.59h16.57c0,0,6.55,33.13,6.55,33.13h0.26c0.75-6.03,2.34-13.77,4.04-21.78
				l2.4-11.34h12.56l-10.95,51.59H570.7c0,0-6.73-35.19-6.73-35.19h-0.15c-0.9,6.48-2.64,14.73-4.54,23.66l-2.45,11.53H544.3z"/>
		</g>
	</g>
	<path class="st2" d="M231.67,342.7c1.9-12.87,5.47-22.97,8.51-29.96c2.68-6.16,5.29-12.17,10.55-18.55
		c8.09-9.82,17.98-15.11,25.34-17.99c-2.99,13.31-5.98,26.63-8.97,39.94c-2.81,1.18-6.13,2.73-9.73,4.78
		c-0.51,0.29-4.23,2.41-8.01,5.11C241.21,331.84,234.91,338.83,231.67,342.7z"/>
	<path class="st2" d="M232.05,345.93c-0.41-0.56,13.29-14.09,33.4-22.51c8.41-3.52,16.33-5.43,18.63-5.96
		c7.58-1.75,14.26-2.52,19.54-2.85c4.28-15.77,8.57-31.55,12.85-47.32c3.45,0.02,6.89,0.05,10.34,0.07
		c-5.46,17.23-10.93,34.45-16.39,51.68c-14.3-0.15-33.95,1.74-54.17,11.66C241.76,337.81,232.39,346.39,232.05,345.93z"/>
	<path class="st4" d="M220.09,310.86c-2.24-23.37-3.36-35.06-11.55-46.52c-11.28-15.78-28.73-21.08-34.04-22.7
		c-10.24-3.11-19.33-3.19-24.45-3.2c-9.55-0.02-17.53,1.38-23.28,2.79c5.24,9.28,10.9,21.06,15.54,35.18
		c4.09,12.42,6.45,23.79,7.84,33.42c4.94,0.02,12.12,0.36,20.63,1.86c9.11,1.61,20.84,3.78,33.32,11.45
		c4.34,2.67,10.57,7.1,16.92,14.13C221.19,330.78,221.13,321.68,220.09,310.86z M195.96,284.14c-0.05,1.32-0.17,4.51-2.39,7.12
		c-2.99,3.51-7.72,3.63-11.23,3.71c-5.81,0.15-10.46-1.77-13.31-3.3c-2.13-9.77-4.26-19.53-6.4-29.3
		c1.68-0.03,21.26-0.16,29.3,10.73C193.26,274.91,196.15,278.82,195.96,284.14z"/>
	<path class="st2" d="M221.07,345.93c-5.88-5.48-11.25-9.06-14.89-11.23c-19.14-11.43-38.4-12.86-51.18-13.66
		c-6.67-0.42-12.13-0.32-15.58-0.17c-3.13-11.25-6.46-22.71-10.01-34.35c-3.58-11.77-7.23-23.25-10.93-34.46
		c3.03-0.03,6.05-0.07,9.08-0.1c3.65,7.94,7.31,17.11,10.52,27.44c3.98,12.8,6.4,24.59,7.88,34.82c9.5-0.46,22.24,0.21,36.26,4.74
		c7.95,2.57,18.91,6.25,29.4,16C215.99,339.01,219.05,342.98,221.07,345.93z"/>
	<path class="st6" d="M219.49,349.45c-0.65,0.51-1.57,1.36-2.35,2.64c-1.03,1.7-1.31,3.31-1.4,4.22c-3.11-0.83-7.46-1.92-12.72-2.99
		c-5.33-1.09-12.54-2.3-23.57-3.51c-7.68-0.84-17.52-1.7-29.09-2.15c5.3-0.28,10.75-0.48,16.35-0.58c5-0.1,9.88-0.12,14.63-0.07
		c-0.99-0.26-2.51-0.63-4.37-1c-5.57-1.09-9.5-1.16-16.47-1.41c-2.83-0.1-7.31-0.28-13-0.55c5.01-0.36,11.9-0.69,20.12-0.55
		c1.73,0.03,7.81,0.13,13.18,0.62c7.23,0.65,18.24,2.43,31.97,7.81c-3.02-1.67-7.66-4.04-13.55-6.33c-15.2-5.89-28.02-7.03-39.97-8
		c-7.32-0.59-17.35-1.02-29.34-0.32c-6.18-24.48-12.36-48.97-18.55-73.45h7.12c5.54,20.39,11.07,40.78,16.61,61.17
		c5.63-0.05,13.68,0.1,23.31,1.05c16.1,1.58,28.26,2.88,41.51,9.51C204.87,338.03,211.98,342.25,219.49,349.45z"/>
	<path class="st4" d="M275.63,312.44c4.3-1.42,9.27-2.72,14.85-3.61c2.62-0.42,5.12-0.7,7.49-0.88c3.65-14.92,7.3-29.83,10.95-44.75
		c6.44-0.09,12.89-0.18,19.33-0.26c2.38-7.71,4.77-15.41,7.15-23.12c-14.84,0.13-27.18,1.33-36.24,2.54
		c-6.79,0.91-18.01,2.66-29.67,6.52c-6.42,2.13-13.78,5.9-21.71,11.85c0,0,0,0,0,0c-4.52,3.45-7.93,6.8-10.25,9.28
		c-3.32-4.25-6.64-8.5-9.97-12.76c-6.49-2.35-12.98-4.7-19.47-7.05c1.38,6.97,2.75,13.94,4.13,20.91
		c7.83,10.51,15.66,21.02,23.49,31.53c3.69-6.58,11.43-18.26,25.53-27.67c10.06-6.72,19.69-9.83,26.23-11.36
		C283.51,279.89,279.57,296.16,275.63,312.44z"/>
	<path class="st6" d="M247.43,230.5c0.01,7.02,0.01,14.04,0.02,21.05c10.84-6.27,20.52-9.66,27.49-11.57
		c8.92-2.45,16.57-3.37,20.89-3.87c5.91-0.69,11-0.94,14.92-1.02c-0.01-0.68,0-1.38,0.02-2.11c0.02-0.71,0.06-1.4,0.1-2.06
		c-12.24-1.59-24.48-3.19-36.72-4.78C265.24,227.58,256.34,229.04,247.43,230.5z"/>
	<path class="st6" d="M244.27,233.28c-8.85-2.2-17.7-4.4-26.55-6.6c19.44-6.76,38.88-13.53,58.32-20.29
		c20.75,6.19,41.49,12.38,62.24,18.57c-5.32,1.88-10.64,3.76-15.96,5.64c-16.14-2.43-32.28-4.86-48.42-7.29
		c-9.86,1.7-19.71,3.39-29.57,5.09C244.31,230.03,244.29,231.65,244.27,233.28z"/>
	<path class="st4" d="M232.75,349.85c5.49-3.81,12.89-8.37,22.11-12.58c13.49-6.17,24.48-8.66,27.19-9.25
		c7.74-1.69,18.54-3.28,31.53-2.82c7.99-24.33,15.99-48.67,23.98-73c4.08-0.02,8.16-0.04,12.25-0.06
		c-8.61,28.65-17.22,57.3-25.83,85.96c-12.54,0.37-27.53,1.73-44.15,5.16c-17.16,3.54-31.87,8.41-43.78,13.2
		c-0.1-0.85-0.35-2.15-1.06-3.58C234.27,351.43,233.37,350.44,232.75,349.85z"/>
	<path class="st2" d="M243.09,254.33c-1.01,0.38-2.7,0.86-4.83,0.81c-1.91-0.05-3.42-0.52-4.38-0.89c0.67-3.6,1.33-7.21,2-10.81
		c-0.1-0.08-0.81-0.67-0.8-1.62c0-0.86,0.59-1.65,1.47-1.98c0-0.15,0.01-0.48,0-0.91c-0.02-1.7,0-7.43,0-9.38
		c0-0.1,0.01-0.66,0.46-1.11c0.28-0.28,0.67-0.46,1.11-0.46h0.79c0.86,0,1.56,0.7,1.56,1.56c0,3.45,0,6.9,0,10.35
		c0.06,0.02,1.12,0.46,1.32,1.61c0.19,1.13-0.62,1.89-0.67,1.93C241.76,247.08,242.42,250.7,243.09,254.33z"/>
</g>
</svg>
