<?xml version="1.0" encoding="utf-8"?>
<!-- Generator: Adobe Illustrator 24.0.0, SVG Export Plug-In . SVG Version: 6.00 Build 0)  -->
<svg version="1.1" id="Layer_1" xmlns="http://www.w3.org/2000/svg" xmlns:xlink="http://www.w3.org/1999/xlink" x="0px" y="0px"
	 viewBox="0 0 283.52 283.52" style="enable-background:new 0 0 283.52 283.52;" xml:space="preserve">
<style type="text/css">
	.st0{fill:#FFFFFF;}
	.st1{fill:#1E3666;}
	.st2{fill:#1D3261;}
	.st3{fill:#149EAD;}
</style>
<g>
	<circle class="st0" cx="141.76" cy="141.76" r="141.76"/>
	<g>
		<g>
			<circle class="st1" cx="136.9" cy="215.59" r="8.51"/>
			<path class="st2" d="M130.91,167.46c-2.31-24.17-3.47-36.25-11.95-48.11c-11.67-16.32-29.71-21.8-35.2-23.47
				c-10.58-3.21-19.99-3.3-25.28-3.31C48.6,92.55,40.35,94,34.41,95.45c5.42,9.6,11.27,21.77,16.07,36.38
				c4.23,12.85,6.67,24.61,8.11,34.56c5.11,0.02,12.53,0.37,21.33,1.92c9.42,1.66,21.55,3.91,34.46,11.84
				c4.49,2.76,10.93,7.34,17.49,14.61C132.05,188.06,131.99,178.65,130.91,167.46z M105.95,139.83c-0.05,1.36-0.17,4.66-2.47,7.36
				c-3.09,3.63-7.98,3.75-11.61,3.84c-6,0.15-10.82-1.83-13.76-3.41c-2.2-10.1-4.41-20.2-6.61-30.3c1.74-0.03,21.98-0.17,30.3,11.09
				C103.17,130.28,106.16,134.33,105.95,139.83z"/>
			<path class="st1" d="M130.29,207.36c-0.67,0.52-1.62,1.4-2.43,2.73c-1.07,1.75-1.36,3.42-1.45,4.36
				c-3.21-0.86-7.72-1.99-13.15-3.1c-5.51-1.13-12.97-2.38-24.38-3.63c-7.94-0.87-18.11-1.76-30.08-2.22
				c5.48-0.29,11.11-0.49,16.91-0.6c5.17-0.1,10.21-0.12,15.13-0.07c-1.02-0.27-2.59-0.66-4.52-1.03c-5.76-1.12-9.83-1.2-17.03-1.46
				c-2.93-0.11-7.56-0.29-13.44-0.57c5.18-0.37,12.31-0.71,20.8-0.57c1.79,0.03,8.08,0.14,13.63,0.64
				c7.47,0.67,18.86,2.52,33.06,8.08c-3.12-1.72-7.92-4.18-14.01-6.54c-15.72-6.09-28.97-7.27-41.33-8.28
				c-7.57-0.61-17.94-1.05-30.34-0.33c-6.39-25.32-12.79-50.63-19.18-75.95h7.36c5.72,21.09,11.45,42.17,17.17,63.26
				c5.82-0.05,14.15,0.11,24.1,1.08c16.65,1.63,29.22,2.98,42.93,9.83C115.17,195.55,122.52,199.92,130.29,207.36z"/>
			<path class="st2" d="M188.34,169.09c4.44-1.47,9.59-2.81,15.36-3.73c2.71-0.43,5.29-0.72,7.74-0.91
				c3.77-15.43,7.55-30.85,11.32-46.28c6.66-0.09,13.32-0.18,19.99-0.27c2.46-7.97,4.93-15.94,7.39-23.91
				c-15.35,0.13-28.1,1.38-37.47,2.63c-7.02,0.94-18.63,2.75-30.68,6.74c-6.64,2.2-14.25,6.1-22.45,12.25c0,0,0,0,0,0
				c-4.68,3.56-8.2,7.03-10.6,9.6c-3.44-4.4-6.87-8.79-10.31-13.19c-6.71-2.43-13.42-4.86-20.13-7.29
				c1.42,7.21,2.84,14.41,4.27,21.62c8.1,10.87,16.19,21.74,24.29,32.61c3.82-6.8,11.82-18.88,26.4-28.61
				c10.4-6.94,20.36-10.16,27.12-11.75C196.5,135.43,192.42,152.26,188.34,169.09z"/>
			<path class="st1" d="M159.18,84.36c0.01,7.26,0.01,14.51,0.02,21.77c11.21-6.49,21.22-9.99,28.43-11.97
				c9.22-2.54,17.13-3.48,21.61-4c6.12-0.71,11.38-0.97,15.43-1.06c-0.01-0.7,0-1.43,0.02-2.18c0.02-0.74,0.06-1.45,0.11-2.13
				c-12.66-1.65-25.32-3.3-37.98-4.94C177.6,81.35,168.39,82.85,159.18,84.36z"/>
			<path class="st1" d="M155.91,87.24c-9.15-2.28-18.3-4.55-27.45-6.83c20.1-6.99,40.2-13.99,60.31-20.98
				c21.45,6.4,42.91,12.8,64.36,19.2c-5.5,1.94-11,3.89-16.5,5.83c-16.69-2.51-33.38-5.03-50.07-7.54
				c-10.19,1.75-20.39,3.51-30.58,5.26C155.96,83.87,155.94,85.55,155.91,87.24z"/>
			<path class="st2" d="M144,207.78c5.68-3.94,13.33-8.65,22.86-13.01c13.95-6.38,25.32-8.95,28.12-9.56
				c8-1.75,19.17-3.39,32.61-2.92c8.27-25.16,16.53-50.33,24.8-75.49c4.22-0.02,8.44-0.04,12.66-0.06
				c-8.9,29.63-17.81,59.26-26.71,88.88c-12.97,0.38-28.46,1.79-45.66,5.33c-17.75,3.66-32.95,8.7-45.27,13.65
				c-0.1-0.88-0.36-2.22-1.1-3.7C145.57,209.42,144.65,208.39,144,207.78z"/>
		</g>
		<g>
			<path class="st3" d="M142.88,200.38c1.97-13.31,5.66-23.75,8.8-30.98c2.77-6.37,5.47-12.58,10.91-19.19
				c8.37-10.15,18.59-15.62,26.21-18.61c-3.09,13.77-6.19,27.53-9.28,41.3c-2.91,1.22-6.34,2.83-10.06,4.94
				c-0.53,0.3-4.38,2.49-8.29,5.28C152.75,189.15,146.24,196.38,142.88,200.38z"/>
			<path class="st3" d="M143.28,203.73c-0.43-0.58,13.75-14.57,34.54-23.28c8.7-3.64,16.89-5.61,19.27-6.17
				c7.83-1.81,14.74-2.61,20.2-2.94c4.43-16.31,8.86-32.62,13.29-48.93c3.56,0.02,7.13,0.05,10.69,0.07
				c-5.65,17.81-11.3,35.62-16.95,53.44c-14.78-0.16-35.11,1.8-56.01,12.05C153.32,195.33,143.62,204.2,143.28,203.73z"/>
			<path class="st3" d="M131.92,203.73c-6.08-5.67-11.63-9.37-15.4-11.62c-19.79-11.82-39.71-13.29-52.92-14.13
				c-6.9-0.44-12.54-0.33-16.11-0.18c-3.24-11.64-6.68-23.48-10.35-35.52c-3.7-12.17-7.48-24.04-11.31-35.63
				c3.13-0.04,6.26-0.07,9.39-0.11c3.78,8.21,7.56,17.69,10.88,28.38c4.11,13.23,6.61,25.43,8.14,36c9.83-0.48,23,0.21,37.5,4.9
				c8.22,2.66,19.56,6.46,30.41,16.55C126.67,196.57,129.84,200.68,131.92,203.73z"/>
			<path class="st3" d="M154.69,109c-1.05,0.39-2.79,0.89-4.99,0.84c-1.97-0.05-3.54-0.53-4.53-0.92c0.69-3.73,1.38-7.45,2.06-11.18
				c-0.1-0.08-0.83-0.69-0.83-1.67c0-0.89,0.61-1.71,1.52-2.05c0-0.15,0.01-0.5,0-0.94c-0.02-1.76,0-7.69,0-9.69
				c0-0.11,0.01-0.68,0.47-1.14c0.29-0.29,0.7-0.47,1.14-0.47h0.81c0.89,0,1.62,0.72,1.62,1.62c0,3.57,0,7.14,0,10.71
				c0.06,0.02,1.16,0.48,1.36,1.67c0.2,1.16-0.64,1.95-0.69,2C153.32,101.51,154,105.26,154.69,109z"/>
		</g>
	</g>
</g>
</svg>
